HIERARCHY
ROOT Hips
{
	OFFSET -0.001795 -0.223333 0.028219
	CHANNELS 6 Xposition Yposition Zposition Zrotation Yrotation Xrotation 
	JOINT LeftUpLeg
	{
		OFFSET 0.069520 -0.091406 -0.006815
		CHANNELS 3 Zrotation Yrotation Xrotation
		JOINT LeftLeg
		{
			OFFSET 0.034277 -0.375199 -0.004496
			CHANNELS 3 Zrotation Yrotation Xrotation
			JOINT LeftFoot
			{
				OFFSET -0.013596 -0.397961 -0.043693
				CHANNELS 3 Zrotation Yrotation Xrotation
				JOINT LeftToe
				{
					OFFSET 0.026358 -0.055791 0.119288
					CHANNELS 3 Zrotation Yrotation Xrotation
					End Site
					{
						OFFSET 0.000000 0.000000 0.000000
					}
				}
			}
		}
	}
	JOINT RightUpLeg
	{
		OFFSET -0.067670 -0.090522 -0.004320
		CHANNELS 3 Zrotation Yrotation Xrotation
		JOINT RightLeg
		{
			OFFSET -0.038290 -0.382569 -0.008850
			CHANNELS 3 Zrotation Yrotation Xrotation
			JOINT RightFoot
			{
				OFFSET 0.015774 -0.398415 -0.042312
				CHANNELS 3 Zrotation Yrotation Xrotation
				JOINT RightToe
				{
					OFFSET -0.025372 -0.048144 0.123348
					CHANNELS 3 Zrotation Yrotation Xrotation
					End Site
					{
						OFFSET 0.000000 0.000000 0.000000
					}
				}
			}
		}
	}
	JOINT Spine
	{
		OFFSET -0.002533 0.108963 -0.026696
		CHANNELS 3 Zrotation Yrotation Xrotation
		JOINT Spine1
		{
			OFFSET 0.005487 0.135180 0.001092
			CHANNELS 3 Zrotation Yrotation Xrotation
			JOINT Spine2
			{
				OFFSET 0.001457 0.052922 0.025425
				CHANNELS 3 Zrotation Yrotation Xrotation
				JOINT Neck
				{
					OFFSET -0.002778 0.213870 -0.042857
					CHANNELS 3 Zrotation Yrotation Xrotation
					JOINT Head
					{
						OFFSET 0.005152 0.064970 0.051349
						CHANNELS 3 Zrotation Yrotation Xrotation
						End Site
						{
							OFFSET 0.000000 0.000000 0.000000
						}
					}
				}
				JOINT LeftShoulder
				{
					OFFSET 0.078845 0.121749 -0.034090
					CHANNELS 3 Zrotation Yrotation Xrotation
					JOINT LeftArm
					{
						OFFSET 0.090977 0.030469 -0.008868
						CHANNELS 3 Zrotation Yrotation Xrotation
						JOINT LeftForeArm
						{
							OFFSET 0.259612 -0.012772 -0.027456
							CHANNELS 3 Zrotation Yrotation Xrotation
							JOINT LeftHand
							{
								OFFSET 0.249234 0.008986 -0.001171
								CHANNELS 3 Zrotation Yrotation Xrotation
								End Site
								{
									OFFSET 0.000000 0.000000 0.000000
								}
							}
						}
					}
				}
				JOINT RightShoulder
				{
					OFFSET -0.081759 0.118833 -0.038615
					CHANNELS 3 Zrotation Yrotation Xrotation
					JOINT RightArm
					{
						OFFSET -0.096012 0.032551 -0.009143
						CHANNELS 3 Zrotation Yrotation Xrotation
						JOINT RightForeArm
						{
							OFFSET -0.253742 -0.013329 -0.021401
							CHANNELS 3 Zrotation Yrotation Xrotation
							JOINT RightHand
							{
								OFFSET -0.255298 0.007772 -0.005559
								CHANNELS 3 Zrotation Yrotation Xrotation
								End Site
								{
									OFFSET 0.000000 0.000000 0.000000
								}
							}
						}
					}
				}
			}
		}
	}
}
MOTION
Frames: 16
Frame Time: 0.050000
0.416118 0.870295 -1.986102 -0.190058 0.454743 14.880351 -0.335555 -3.990720 -41.576192 -3.960571 0.477190 51.602989 10.439046 21.935602 -6.605497 0.000000 0.000000 0.000000 -5.219970 3.258024 -55.902015 6.755783 -1.453359 32.332418 -10.751177 -25.327125 11.209891 0.000000 0.000000 0.000000 5.887308 -5.204230 48.207362 -5.548952 1.661570 -29.997899 -1.451520 5.726253 30.771972 12.641842 -1.971117 -41.640479 0.000000 0.000000 0.000000 -25.748330 -21.055851 9.929427 -50.080715 -19.874535 0.146171 8.759813 -36.230117 -1.078376 0.000000 0.000000 0.000000 30.925566 1.519966 1.489338 56.864465 10.923507 -3.580929 -0.127334 49.394073 4.061038 0.000000 0.000000 0.000000 
0.427827 0.864273 -2.010668 0.089288 1.484466 13.799116 -1.325849 -4.484446 -41.412204 -3.931604 0.178809 50.154323 10.977373 23.224474 -8.730040 0.000000 0.000000 0.000000 -5.891414 2.631493 -56.144639 5.762804 -1.135603 31.800169 -11.466621 -26.050440 13.765045 0.000000 0.000000 0.000000 5.109921 -5.132305 49.094468 -5.029130 1.585546 -30.385074 -1.815161 5.572597 31.070991 13.320576 -2.501632 -40.137932 0.000000 0.000000 0.000000 -25.484769 -20.623228 9.485800 -50.634136 -18.641829 -0.368553 8.725217 -36.682550 -1.113663 0.000000 0.000000 0.000000 31.957233 1.622005 1.730708 57.041540 9.790164 -4.252978 0.236492 48.999329 4.236033 0.000000 0.000000 0.000000 
0.440161 0.861804 -2.036374 0.037158 2.378666 13.314956 -1.448072 -4.792445 -42.383913 -4.843348 0.516779 50.326290 11.815041 25.024004 -7.004963 0.000000 0.000000 0.000000 -6.555697 2.051722 -56.458331 4.816925 -0.819397 31.066239 -10.420555 -24.057729 14.486045 0.000000 0.000000 0.000000 4.978186 -5.219044 48.691294 -6.123159 1.813649 -28.970994 -1.137336 4.260842 30.349685 13.160245 -2.721742 -39.443888 0.000000 0.000000 0.000000 -27.553928 -19.804786 9.491856 -48.998575 -17.161120 -1.047783 8.039778 -36.795846 -0.855107 0.000000 0.000000 0.000000 33.924875 2.163543 1.649511 55.192302 8.899120 -4.570914 2.585287 49.076468 5.008216 0.000000 0.000000 0.000000 
0.452830 0.862388 -2.061692 -0.605632 1.477207 13.757570 -1.044223 -4.632519 -43.610604 -4.975816 0.819245 48.652604 12.014960 25.450872 -6.139297 0.000000 0.000000 0.000000 -7.374501 1.989296 -57.976358 5.794961 -1.140887 31.372235 -9.823714 -23.153283 15.689747 0.000000 0.000000 0.000000 3.912253 -4.405957 47.981909 -4.987146 1.582770 -29.732720 -1.552504 5.404268 31.515515 12.764409 -2.572889 -38.869105 0.000000 0.000000 0.000000 -28.172397 -19.888224 9.329972 -48.152190 -15.168154 -1.850131 6.974085 -38.239799 -0.588302 0.000000 0.000000 0.000000 35.838953 2.527177 2.364131 53.629417 8.896505 -4.812697 3.569429 49.016795 5.494501 0.000000 0.000000 0.000000 
0.465180 0.867148 -2.085757 -1.147036 0.172826 14.132998 -0.341426 -4.250341 -44.698230 -5.264127 1.254134 46.403526 12.156204 25.538235 -3.896551 0.000000 0.000000 0.000000 -8.049644 2.136889 -59.569211 7.007096 -1.653985 35.821566 -10.842939 -25.158150 14.760752 0.000000 0.000000 0.000000 3.123861 -3.672253 47.405270 -4.662295 1.526674 -29.002364 -1.462344 5.074473 30.718609 10.973295 -1.970234 -38.222909 0.000000 0.000000 0.000000 -29.318477 -18.936587 9.121597 -48.142544 -13.800485 -2.368317 6.887418 -39.448278 -0.513190 0.000000 0.000000 0.000000 35.510892 3.457991 2.633841 52.994965 8.046723 -4.951051 5.959631 48.602850 6.257431 0.000000 0.000000 0.000000 
0.476100 0.875183 -2.108747 -1.474715 -0.581991 14.453748 -0.036109 -4.009605 -44.920948 -5.425143 1.415279 43.005801 11.503567 23.988653 -1.585759 0.000000 0.000000 0.000000 -8.488816 2.237454 -61.331552 8.182056 -2.443967 43.978984 -10.073624 -24.001194 13.645567 0.000000 0.000000 0.000000 3.065204 -3.453147 46.981445 -5.026169 1.582135 -28.746905 -1.459786 4.430466 30.872086 10.385316 -1.682354 -39.472507 0.000000 0.000000 0.000000 -29.243596 -18.642211 9.362976 -48.616373 -13.493810 -2.634627 6.138386 -41.541863 -0.153015 0.000000 0.000000 0.000000 36.009645 4.349688 2.854049 52.653921 8.594080 -4.616486 5.293322 47.823406 5.713975 0.000000 0.000000 0.000000 
0.484857 0.884912 -2.131516 -1.406892 -0.639825 14.731030 -0.109948 -4.012938 -44.789422 -5.122204 1.195093 39.608273 11.329232 23.486637 0.909339 0.000000 0.000000 0.000000 -8.051679 2.510899 -61.804559 8.087167 -2.782833 53.282724 -10.334640 -24.315508 14.396368 0.000000 0.000000 0.000000 3.431659 -3.656272 47.491265 -5.375135 1.645448 -28.509728 -1.537741 3.417656 30.129335 9.840856 -1.599687 -39.066102 0.000000 0.000000 0.000000 -29.588382 -18.774087 9.905742 -48.615367 -13.269073 -2.709264 7.556525 -43.015503 -0.630142 0.000000 0.000000 0.000000 35.153983 4.700008 2.537976 52.701438 8.509544 -4.375196 4.706212 47.231915 5.187489 0.000000 0.000000 0.000000 
0.491059 0.895401 -2.154611 -1.215779 0.318877 14.823695 -0.225019 -4.263461 -45.063463 -5.019064 0.965245 37.476974 10.845901 22.492140 3.824015 0.000000 0.000000 0.000000 -7.967897 2.151208 -60.033223 9.228499 -4.282624 61.573968 -10.357133 -24.146674 14.362361 0.000000 0.000000 0.000000 3.680841 -4.045270 48.072428 -5.225218 1.611442 -29.217960 -1.775664 2.226730 30.758067 11.077954 -2.196243 -39.648293 0.000000 0.000000 0.000000 -30.243079 -18.962316 10.516330 -47.413838 -13.230979 -2.851438 7.344782 -44.364513 -0.496051 0.000000 0.000000 0.000000 35.375508 5.482005 2.714231 52.490621 8.866139 -4.158390 3.071308 46.652770 4.315597 0.000000 0.000000 0.000000 
0.494744 0.901555 -2.178050 -1.361139 -0.059872 15.583998 0.678680 -3.949869 -46.229966 -5.858266 1.363725 35.295260 10.727809 22.189592 6.641164 0.000000 0.000000 0.000000 -7.235936 2.580845 -57.851068 10.479593 -5.785801 68.904124 -10.593831 -24.523560 14.112100 0.000000 0.000000 0.000000 3.354613 -3.718311 47.082523 -5.229763 1.615945 -28.702980 -2.142634 1.769781 31.132056 10.624105 -2.083606 -39.548810 0.000000 0.000000 0.000000 -29.121777 -19.271402 10.913055 -47.127373 -14.741012 -2.387261 9.920275 -45.166836 -1.467607 0.000000 0.000000 0.000000 34.639436 7.067767 3.663566 54.119649 9.449797 -3.893690 0.377853 46.255659 3.162549 0.000000 0.000000 0.000000 
0.496651 0.906958 -2.202034 -0.994390 -0.792274 16.392696 0.603985 -3.951756 -47.602869 -5.440230 1.207217 33.037003 9.972977 20.827630 10.263109 0.000000 0.000000 0.000000 -6.367584 3.092108 -55.530018 11.781311 -7.014002 72.195994 -10.749547 -24.710408 14.759551 0.000000 0.000000 0.000000 2.634362 -3.161381 46.371283 -5.244085 1.624740 -28.019194 -2.091839 1.459127 30.373087 11.134204 -2.282419 -39.705662 0.000000 0.000000 0.000000 -27.687819 -19.315918 10.981874 -47.313933 -15.687354 -2.014432 11.341264 -45.536820 -2.008812 0.000000 0.000000 0.000000 33.175189 7.160077 3.450996 55.561344 10.178042 -3.438935 -0.659411 44.978639 2.604710 0.000000 0.000000 0.000000 
0.497402 0.908935 -2.225847 -0.971151 -2.260808 16.841118 0.973708 -3.567975 -48.656058 -5.586921 1.384136 31.765577 10.160021 20.942365 12.579377 0.000000 0.000000 0.000000 -6.062889 3.496785 -53.432728 12.983718 -7.497460 71.998809 -10.444976 -24.439039 13.113701 0.000000 0.000000 0.000000 1.509232 -2.297669 46.338695 -5.016597 1.563704 -28.628186 -1.447168 2.059624 30.953750 11.067862 -1.951917 -41.654773 0.000000 0.000000 0.000000 -27.580149 -20.461463 11.730267 -46.478750 -16.594372 -1.689647 11.740415 -44.685003 -2.175601 0.000000 0.000000 0.000000 33.410435 7.059570 3.418311 55.933304 10.879304 -3.174462 -1.420855 44.836907 2.349473 0.000000 0.000000 0.000000 
0.497113 0.907769 -2.249270 -0.932971 -3.029477 17.904774 0.970654 -3.492620 -50.285641 -5.546418 1.388296 30.364889 9.443642 19.792078 13.505689 0.000000 0.000000 0.000000 -4.704595 4.066436 -51.093608 12.855751 -6.730418 69.734771 -11.041973 -25.648240 12.479301 0.000000 0.000000 0.000000 1.042165 -1.868482 45.518092 -5.114712 1.575381 -28.499258 -1.496939 1.153659 30.275528 10.273438 -1.600891 -42.674680 0.000000 0.000000 0.000000 -26.625290 -18.725375 10.935817 -46.964246 -16.387953 -1.821767 11.128829 -45.372684 -1.821271 0.000000 0.000000 0.000000 34.056781 8.220254 3.666308 55.802011 9.311906 -3.607846 -1.737197 45.846384 2.091779 0.000000 0.000000 0.000000 
0.495507 0.906392 -2.273014 -0.848533 -4.184399 18.818190 1.553197 -3.017628 -51.398709 -5.465082 1.366750 28.058269 9.428066 19.641463 14.861412 0.000000 0.000000 0.000000 -2.187313 4.885316 -47.392212 11.564093 -4.542186 63.233149 -10.886306 -26.061672 8.451131 0.000000 0.000000 0.000000 0.427391 -1.327985 45.042373 -5.082504 1.560130 -28.215161 -1.627474 1.483685 29.466483 10.409698 -1.709641 -41.971538 0.000000 0.000000 0.000000 -25.562087 -18.279953 10.519417 -47.516332 -15.715424 -1.971469 10.902595 -45.755898 -1.750816 0.000000 0.000000 0.000000 33.671246 8.140452 3.529108 56.159653 9.223814 -3.545496 -1.205991 45.883572 2.277656 0.000000 0.000000 0.000000 
0.492356 0.903041 -2.298290 -0.368394 -4.909698 18.527436 2.155616 -2.593969 -51.377559 -5.453509 1.316754 25.416666 9.378325 19.441641 17.030445 0.000000 0.000000 0.000000 -0.431712 4.824733 -41.652312 9.362309 -2.284905 54.906509 -9.472118 -23.863302 2.294965 0.000000 0.000000 0.000000 -0.473240 -0.739066 44.979567 -4.980972 1.543859 -28.295669 -1.689897 2.285065 28.813188 11.596678 -2.248371 -41.130643 0.000000 0.000000 0.000000 -27.694741 -18.982716 11.004261 -45.212086 -14.324246 -2.385483 9.781446 -43.750680 -1.421271 0.000000 0.000000 0.000000 35.041636 7.442654 3.264866 56.275694 8.626855 -3.861357 -1.497053 44.451089 2.132028 0.000000 0.000000 0.000000 
0.487601 0.901131 -2.327269 -0.147264 -4.401357 18.031300 2.118258 -2.756154 -51.506312 -4.304862 0.824635 23.316646 8.706040 18.559416 18.089918 0.000000 0.000000 0.000000 1.584882 4.709609 -37.378000 6.841449 -0.780151 46.640263 -9.199981 -23.538906 -4.204982 0.000000 0.000000 0.000000 0.128239 -1.142330 45.739125 -5.620393 1.667471 -28.152296 -1.900207 2.317965 28.485679 12.740319 -2.709778 -40.826879 0.000000 0.000000 0.000000 -25.754848 -18.159525 10.024603 -46.506203 -14.674195 -2.182759 8.444792 -43.569082 -0.920144 0.000000 0.000000 0.000000 35.008811 6.672461 2.752875 57.041641 8.708233 -3.817960 -1.133534 44.749358 2.324751 0.000000 0.000000 0.000000 
0.482359 0.900732 -2.360173 -0.654689 -4.444869 18.044052 2.806736 -2.448282 -52.277686 -2.777470 0.309735 21.453470 7.805878 17.331408 19.551785 0.000000 0.000000 0.000000 3.233153 4.984866 -36.256724 6.249599 -0.487039 41.152657 -9.298221 -23.912981 -7.155989 0.000000 0.000000 0.000000 0.038382 -1.099364 45.954127 -5.215498 1.591683 -28.267231 -1.704046 3.616880 28.459640 12.422347 -2.476524 -40.412211 0.000000 0.000000 0.000000 -25.749133 -18.335968 9.648846 -46.326188 -14.647204 -2.072355 8.737793 -42.789057 -1.134176 0.000000 0.000000 0.000000 35.563911 6.493269 3.276872 56.048784 9.338441 -3.670985 -2.104968 44.515406 2.061558 0.000000 0.000000 0.000000 
